<svg viewBox="0 0 27.997 27.994" xmlns="http://www.w3.org/2000/svg"><path d="M13.122 3.298a.832.832 0 111.664 0 .832.832 0 01-1.664 0zm-9.924 7.534a.832.832 0 111.664 0 .832.832 0 01-1.664 0zm19.856.04a.832.832 0 111.664 0 .832.832 0 01-1.664 0zm-17.45 1.14a.76.76 0 00.385-1l-.369-.836h1.452v6.545h-2.93a10.246 10.246 0 01-.332-3.91zm6.073.16v-1.929h3.458c.18 0 1.261.206 1.261 1.016 0 .672-.83.913-1.513.913zM6.957 22.56a.832.832 0 111.663 0 .832.832 0 01-1.664 0zm12.33.04a.832.832 0 111.664 0 .832.832 0 01-1.664 0zm.257-1.888a.76.76 0 00-.9.584l-.418 1.95a10.246 10.246 0 01-8.545-.042l-.417-1.949a.758.758 0 00-.9-.583l-1.72.37c-.32-.33-.618-.68-.89-1.049h8.373c.095 0 .158-.017.158-.1v-2.966c0-.086-.063-.1-.158-.1h-2.45v-1.88h2.65a1.665 1.665 0 011.628 1.411c.105.413.336 1.757.494 2.187.157.483.8 1.447 1.482 1.447h4.323c-.29.39-.607.756-.949 1.1zm4.65-7.82c.06.59.066 1.185.022 1.778h-1.05c-.106 0-.149.07-.149.172v.483c0 1.136-.64 1.384-1.2 1.447-.535.06-1.128-.224-1.2-.55a3.616 3.616 0 00-1.67-2.809c1.03-.654 2.1-1.619 2.1-2.91a3.294 3.294 0 00-1.609-2.7 4.562 4.562 0 00-2.2-.725H6.365a10.246 10.246 0 015.733-3.239l1.282 1.344a.76.76 0 001.073.025l1.434-1.372a10.246 10.246 0 017.015 5l-.982 2.217a.761.761 0 00.386 1zm2.448.035l-.033-.343 1.011-.943a.42.42 0 00-.134-.676l-1.288-.483-.1-.334.806-1.12a.42.42 0 00-.263-.636l-1.363-.222-.164-.306.573-1.257a.418.418 0 00-.382-.573l-1.383.048-.224-.264.318-1.347a.42.42 0 00-.487-.487l-1.348.315-.266-.219.05-1.38a.42.42 0 00-.573-.384l-1.257.573-.306-.164-.222-1.363a.421.421 0 00-.636-.263l-1.12.806-.334-.1-.483-1.293a.421.421 0 00-.675-.135l-.943 1.012-.343-.033-.728-1.177a.421.421 0 00-.688 0l-.728 1.177-.343.033-.943-1.012a.42.42 0 00-.675.135l-.487 1.287-.333.1-1.12-.8a.421.421 0 00-.636.263L8.17 2.724l-.306.164-1.258-.573a.42.42 0 00-.572.383l.048 1.383-.266.217-1.347-.316a.42.42 0 00-.487.487l.316 1.348-.218.265-1.382-.048a.422.422 0 00-.383.573l.573 1.257-.164.306-1.363.222a.42.42 0 00-.263.636l.806 1.12-.1.334-1.293.483a.421.421 0 00-.134.676l1.011.943-.033.343-1.177.728a.421.421 0 000 .688l1.177.728.033.343-1.01.943a.421.421 0 00.133.675l1.293.483.1.334-.806 1.121a.421.421 0 00.264.636l1.363.222.164.307-.573 1.257a.42.42 0 00.383.573l1.383-.048.22.266-.318 1.348a.42.42 0 00.487.486l1.345-.319.266.218-.049 1.382a.42.42 0 00.572.382l1.257-.573.306.164.222 1.362a.421.421 0 00.636.264l1.12-.807.334.1.483 1.292a.421.421 0 00.675.134l.943-1.01.343.033.728 1.177a.422.422 0 00.688 0l.728-1.177.343-.034.943 1.011a.421.421 0 00.675-.134l.483-1.292.334-.1 1.12.807a.42.42 0 00.636-.264l.222-1.362.306-.164 1.257.573a.42.42 0 00.572-.382l-.048-1.384.265-.218 1.347.317a.419.419 0 00.487-.486l-.312-1.346.218-.266 1.383.048a.42.42 0 00.382-.573l-.573-1.257.164-.307 1.363-.222a.42.42 0 00.263-.636l-.806-1.12.1-.334 1.293-.483a.42.42 0 00.134-.675l-1.01-.943.032-.343 1.177-.728a.42.42 0 000-.688z" fill="url(#r)"/><defs><radialGradient id="r" cx="0" cy="0" r="1" gradientUnits="userSpaceOnUse" gradientTransform="matrix(12.12436 -7 4.2 7.27461 13.998 13.998)"><stop stop-color="#7D7D7D"/><stop offset=".267" stop-color="#7E7C7A"/><stop offset=".45" stop-color="#817871"/><stop offset=".608" stop-color="#867162"/><stop offset=".753" stop-color="#8D684C"/><stop offset=".886" stop-color="#965C30"/><stop offset="1" stop-color="#A04F12"/></radialGradient></defs></svg>